<svg width="143" height="38" viewBox="0 0 143 38" fill="none" xmlns="http://www.w3.org/2000/svg">
<path d="M35.0139 10.729V29.994L39.9259 30L39.9489 14.987H45.4139C45.6521 14.987 45.8879 15.0342 46.1076 15.126C46.3274 15.2177 46.5268 15.3522 46.6942 15.5216C46.8616 15.691 46.9938 15.8919 47.083 16.1127C47.1722 16.3335 47.2167 16.5698 47.2139 16.808L47.3289 29.978H52.4919L52.5209 17.508C52.5209 17.508 52.5519 10.892 45.1699 10.678L35.0139 10.729Z" fill="black"/>
<path d="M60.6629 29.356C59.2305 29.1022 57.9447 28.3221 57.0579 27.169C56.7314 26.7278 56.5101 26.2178 56.4109 25.678V22.587C56.4807 21.722 56.7885 20.8933 57.3004 20.1926C57.8123 19.4918 58.5081 18.9465 59.3109 18.617C60.1177 18.2635 60.9814 18.0579 61.8609 18.01H70.7609L70.7289 17.091C70.7232 16.5862 70.5727 16.0937 70.2953 15.672C70.0178 15.2502 69.6252 14.917 69.1639 14.712C68.6126 14.4638 68.0155 14.3337 67.4109 14.33H57.6329V10.678L69.2879 10.709C70.6201 10.7109 71.9292 11.0575 73.0879 11.715C73.9013 12.2059 74.574 12.8986 75.0409 13.726C75.534 14.603 75.8155 15.583 75.8629 16.588V29.328L60.6629 29.356ZM63.4789 25.823L70.6669 25.852L70.6949 21.726L63.1729 21.695C62.7528 21.7059 62.3532 21.8783 62.0569 22.1763C61.7606 22.4742 61.5905 22.8749 61.5819 23.295L61.6109 24.515C61.5923 24.6582 61.6047 24.8038 61.6473 24.9419C61.6899 25.0799 61.7617 25.2072 61.8579 25.315C62.2939 25.6688 62.845 25.8496 63.4059 25.823H63.4789Z" fill="black"/>
<path d="M95.963 29.937V25.799L88.779 25.831C88.779 25.831 84.328 25.496 84.507 21.511V19.043C84.5459 17.9752 84.9741 16.9586 85.711 16.1849C86.4479 15.4112 87.4424 14.9339 88.507 14.843L95.907 14.812V10.678H87.666C87.666 10.678 79.966 10.829 79.213 18.708C79.0536 20.1164 79.0845 21.5398 79.305 22.94C79.305 22.94 80.657 29.846 88.655 30L95.963 29.937Z" fill="black"/>
<path d="M102.806 29.356C101.375 29.1016 100.091 28.3215 99.206 27.169C98.8781 26.7284 98.656 26.2182 98.557 25.678V22.587C98.6243 21.7225 98.9302 20.8937 99.4406 20.1928C99.951 19.4919 100.646 18.9464 101.448 18.617C102.255 18.2637 103.119 18.0584 103.998 18.011H112.898L112.866 17.09C112.86 16.5855 112.71 16.0932 112.433 15.6716C112.155 15.2501 111.763 14.917 111.302 14.712C110.753 14.4648 110.159 14.3347 109.557 14.33H99.777V10.678L111.432 10.707C112.764 10.7093 114.073 11.0558 115.232 11.713C116.046 12.2036 116.72 12.8963 117.187 13.724C117.68 14.6009 117.962 15.581 118.009 16.586V29.325L102.806 29.356ZM105.622 25.824L112.811 25.852L112.84 21.726L105.316 21.695C104.896 21.7064 104.497 21.879 104.201 22.1769C103.905 22.4748 103.735 22.8751 103.726 23.295L103.757 24.516C103.738 24.6591 103.75 24.8047 103.792 24.9428C103.834 25.0809 103.906 25.2082 104.002 25.316C104.438 25.6706 104.99 25.8518 105.552 25.825L105.622 25.824Z" fill="black"/>
<path d="M127.639 37.728H122.548V10.678H133.648C135.908 10.7959 138.049 11.7276 139.675 13.301C140.529 14.2766 141.176 15.4163 141.574 16.6504C141.973 17.8845 142.115 19.1869 141.993 20.478C142.072 22.8422 141.296 25.1556 139.806 26.993C139.006 27.8095 138.047 28.4519 136.987 28.8795C135.927 29.3072 134.79 29.5109 133.648 29.478H127.648V37.732L127.639 37.728ZM132.965 14.768L127.719 14.798L127.659 25.524L133.459 25.496C134 25.3814 134.511 25.1553 134.959 24.8321C135.408 24.5089 135.784 24.0958 136.064 23.619C136.282 23.2291 136.409 22.7949 136.436 22.349L136.406 18.365C136.378 17.7385 136.196 17.1287 135.875 16.59C135.554 16.0513 135.105 15.6005 134.567 15.278C134.075 14.9968 133.529 14.8223 132.965 14.768Z" fill="black"/>
<path d="M30 0V30H24.952V10.818H20.244V30H0V0.018L30 0Z" fill="#CC0000"/>
</svg>
