<svg xmlns="http://www.w3.org/2000/svg" width="24" height="24" viewBox="0 0 24 24" fill="none">
  <path d="M15 11H16.5V9H18.5C18.9167 9 19.2708 8.85417 19.5625 8.5625C19.8542 8.27083 20 7.91667 20 7.5V6.5C20 6.08333 19.8542 5.72917 19.5625 5.4375C19.2708 5.14583 18.9167 5 18.5 5H15V11ZM16.5 7.5V6.5H18.5V7.5H16.5ZM13 14C12.45 14 11.9792 13.8042 11.5875 13.4125C11.1958 13.0208 11 12.55 11 12V4C11 3.45 11.1958 2.97917 11.5875 2.5875C11.9792 2.19583 12.45 2 13 2H21C21.55 2 22.0208 2.19583 22.4125 2.5875C22.8042 2.97917 23 3.45 23 4V12C23 12.55 22.8042 13.0208 22.4125 13.4125C22.0208 13.8042 21.55 14 21 14H18V21H16V14H13ZM13 12H21V4H13V12ZM8 21C7.71667 21 7.47917 20.9042 7.2875 20.7125C7.09583 20.5208 7 20.2833 7 20V19H2V17H8V12H2V10H7.2L6.15 7H2V5H6.5C6.81667 5 7.10417 5.09167 7.3625 5.275C7.62083 5.45833 7.8 5.7 7.9 6L10 12V20C10 20.2833 9.90417 20.5208 9.7125 20.7125C9.52083 20.9042 9.28333 21 9 21H8ZM5.5 16C5.91667 16 6.27083 15.8542 6.5625 15.5625C6.85417 15.2708 7 14.9167 7 14.5C7 14.0833 6.85417 13.7292 6.5625 13.4375C6.27083 13.1458 5.91667 13 5.5 13C5.08333 13 4.72917 13.1458 4.4375 13.4375C4.14583 13.7292 4 14.0833 4 14.5C4 14.9167 4.14583 15.2708 4.4375 15.5625C4.72917 15.8542 5.08333 16 5.5 16Z" fill="#4CAF50"/>
</svg>
