<svg width="24" height="24" viewBox="0 0 24 24" fill="none" xmlns="http://www.w3.org/2000/svg">
<path d="M18 22H6C5.46957 22 4.96086 21.7893 4.58579 21.4142C4.21071 21.0391 4 20.5304 4 20V10C4 9.46957 4.21071 8.96086 4.58579 8.58579C4.96086 8.21071 5.46957 8 6 8H7V6C7 4.67392 7.52678 3.40215 8.46447 2.46447C9.40215 1.52678 10.6739 1 12 1C13.3261 1 14.5979 1.52678 15.5355 2.46447C16.4732 3.40215 17 4.67392 17 6V8H18C18.5304 8 19.0391 8.21071 19.4142 8.58579C19.7893 8.96086 20 9.46957 20 10V20C20 20.5304 19.7893 21.0391 19.4142 21.4142C19.0391 21.7893 18.5304 22 18 22ZM12 13C11.6044 13 11.2178 13.1173 10.8889 13.3371C10.56 13.5568 10.3036 13.8692 10.1522 14.2346C10.0009 14.6001 9.96126 15.0022 10.0384 15.3902C10.1156 15.7781 10.3061 16.1345 10.5858 16.4142C10.8655 16.6939 11.2219 16.8844 11.6098 16.9616C11.9978 17.0387 12.3999 16.9991 12.7654 16.8478C13.1308 16.6964 13.4432 16.44 13.6629 16.1111C13.8827 15.7822 14 15.3956 14 15C14 14.4696 13.7893 13.9609 13.4142 13.5858C13.0391 13.2107 12.5304 13 12 13ZM12 2.9C11.1778 2.9 10.3893 3.22661 9.80797 3.80797C9.22661 4.38933 8.9 5.17783 8.9 6V8H15.1V6C15.1 5.5929 15.0198 5.18979 14.864 4.81368C14.7082 4.43757 14.4799 4.09583 14.192 3.80797C13.9042 3.52011 13.5624 3.29176 13.1863 3.13597C12.8102 2.98018 12.4071 2.9 12 2.9Z" fill="#383B53"/>
</svg>
