<svg xmlns="http://www.w3.org/2000/svg" width="24" height="24" viewBox="0 0 24 24" fill="none">
  <g clip-path="url(#clip0_82_3647)">
    <path d="M19 16C17.8 16 16.7417 15.625 15.825 14.875C14.9083 14.125 14.3333 13.1667 14.1 12H11.125L9.925 10H14.1C14.1833 9.63333 14.2958 9.28333 14.4375 8.95C14.5792 8.61667 14.7667 8.3 15 8H8.7L7.5 6H16.05L14.95 3H11V1H14.95C15.3833 1 15.7667 1.12083 16.1 1.3625C16.4333 1.60417 16.675 1.925 16.825 2.325L18.175 6H19C20.3833 6 21.5625 6.4875 22.5375 7.4625C23.5125 8.4375 24 9.61667 24 11C24 12.3833 23.5125 13.5625 22.5375 14.5375C21.5625 15.5125 20.3833 16 19 16ZM19 14C19.8333 14 20.5417 13.7083 21.125 13.125C21.7083 12.5417 22 11.8333 22 11C22 10.1667 21.7083 9.45833 21.125 8.875C20.5417 8.29167 19.8333 8 19 8H18.925L19.9 10.675L18 11.35L17.05 8.725C16.7167 9.00833 16.4583 9.35 16.275 9.75C16.0917 10.15 16 10.5667 16 11C16 11.8333 16.2917 12.5417 16.875 13.125C17.4583 13.7083 18.1667 14 19 14ZM7 23C6.16667 23 5.45833 22.7083 4.875 22.125C4.29167 21.5417 4 20.8333 4 20H0V18H4.775C5.025 17.75 5.34167 17.5208 5.725 17.3125C6.10833 17.1042 6.53333 17 7 17C7.41667 17 7.81667 17.0833 8.2 17.25C8.58333 17.4167 8.925 17.6667 9.225 18H12V16H0V14H2V11H0V9H7L10 14H12C12.55 14 13.0208 14.1958 13.4125 14.5875C13.8042 14.9792 14 15.45 14 16V18C14 18.55 13.8042 19.0208 13.4125 19.4125C13.0208 19.8042 12.55 20 12 20H10C10 20.8333 9.70833 21.5417 9.125 22.125C8.54167 22.7083 7.83333 23 7 23ZM4 14H7.675L5.875 11H4V14ZM7 21C7.28333 21 7.52083 20.9042 7.7125 20.7125C7.90417 20.5208 8 20.2833 8 20C8 19.7167 7.90417 19.4792 7.7125 19.2875C7.52083 19.0958 7.28333 19 7 19C6.71667 19 6.47917 19.0958 6.2875 19.2875C6.09583 19.4792 6 19.7167 6 20C6 20.2833 6.09583 20.5208 6.2875 20.7125C6.47917 20.9042 6.71667 21 7 21Z" fill="currentColor"/>
  </g>
  <defs>
    <clipPath id="clip0_82_3647">
      <rect width="24" height="24" fill="white"/>
    </clipPath>
  </defs>
</svg>
