<svg xmlns="http://www.w3.org/2000/svg" width="20" height="20" viewBox="0 0 20 20" fill="none">
  <path d="M16.6215 16.6215H3.32426C2.88343 16.6215 2.46066 16.4463 2.14894 16.1346C1.83723 15.8229 1.66211 15.4001 1.66211 14.9593V4.98641C1.66211 4.54558 1.83723 4.12281 2.14894 3.81109C2.46066 3.49938 2.88343 3.32426 3.32426 3.32426H5.95877L7.47963 1.66211H12.4661L13.987 3.32426H16.6215C17.0623 3.32426 17.4851 3.49938 17.7968 3.81109C18.1085 4.12281 18.2836 4.54558 18.2836 4.98641V14.9593C18.2836 15.4001 18.1085 15.8229 17.7968 16.1346C17.4851 16.4463 17.0623 16.6215 16.6215 16.6215ZM9.97286 5.81748C9.151 5.81748 8.3476 6.06119 7.66426 6.51779C6.98091 6.97439 6.4483 7.62337 6.13379 8.38267C5.81928 9.14196 5.73699 9.97747 5.89733 10.7835C6.05766 11.5896 6.45343 12.33 7.03457 12.9112C7.61571 13.4923 8.35612 13.8881 9.16219 14.0484C9.96825 14.2087 10.8038 14.1264 11.5631 13.8119C12.3223 13.4974 12.9713 12.9648 13.4279 12.2815C13.8845 11.5981 14.1282 10.7947 14.1282 9.97286C14.1271 8.87112 13.689 7.81483 12.9099 7.03578C12.1309 6.25673 11.0746 5.81858 9.97286 5.81748Z" fill="white"/>
  <path d="M9.97292 12.6324C11.4417 12.6324 12.6324 11.4417 12.6324 9.97292C12.6324 8.50415 11.4417 7.31348 9.97292 7.31348C8.50415 7.31348 7.31348 8.50415 7.31348 9.97292C7.31348 11.4417 8.50415 12.6324 9.97292 12.6324Z" fill="white"/>
</svg>
