<svg xmlns="http://www.w3.org/2000/svg" width="23" height="24" viewBox="0 0 23 24" fill="none">
  <path d="M13.6037 23.2H8.96366C8.8241 23.1991 8.68938 23.1488 8.58326 23.0582C8.47714 22.9675 8.40645 22.8423 8.38366 22.7046L7.94866 19.6354C7.24849 19.3452 6.59018 18.9628 5.99116 18.4984L3.10325 19.6584C3.03797 19.6815 2.96946 19.6941 2.90025 19.6959C2.7959 19.6976 2.69306 19.6708 2.60294 19.6181C2.51281 19.5655 2.43886 19.4892 2.38912 19.3974L0.0703305 15.3821C0.00549731 15.2616 -0.0153703 15.1222 0.0113062 14.9879C0.0379828 14.8537 0.110541 14.7329 0.216539 14.6462L2.66825 12.7371C2.61026 12.3613 2.58238 11.9815 2.58487 11.6012C2.58972 11.2199 2.6261 10.8396 2.69362 10.4642L0.241914 8.55503C0.128518 8.47367 0.0503976 8.35215 0.0234584 8.2152C-0.00348082 8.07826 0.0227872 7.9362 0.0969138 7.81795L2.40483 3.80628C2.45359 3.7145 2.52656 3.63783 2.61581 3.58457C2.70506 3.53132 2.80719 3.50352 2.91112 3.5042C2.98158 3.50414 3.05151 3.51641 3.11775 3.54045L6.00566 4.69924C6.60598 4.23709 7.26404 3.85526 7.96316 3.56341L8.39575 0.49545C8.4147 0.358246 8.48263 0.232524 8.587 0.141474C8.69138 0.0504238 8.82516 0.000188152 8.96366 3.31248e-05H13.6037C13.7439 -0.001465 13.8799 0.0478981 13.9866 0.138983C14.0932 0.230068 14.1632 0.356706 14.1837 0.49545L14.6187 3.56462C15.319 3.85404 15.9774 4.23605 16.5762 4.70045L19.4641 3.54166C19.5293 3.52078 19.5974 3.51018 19.6659 3.51024C19.7701 3.50848 19.8728 3.53524 19.9629 3.58764C20.0529 3.64003 20.127 3.71605 20.177 3.80749L22.4982 7.81916C22.5629 7.93996 22.5837 8.07946 22.557 8.21387C22.5304 8.34828 22.4579 8.46928 22.352 8.55624L19.8991 10.4642C19.9579 10.8403 19.9862 11.2206 19.9837 11.6012C19.9847 11.981 19.9604 12.3605 19.9112 12.7371L22.3399 14.6462C22.4511 14.729 22.5276 14.8501 22.5547 14.986C22.5817 15.122 22.5572 15.2631 22.4861 15.3821L20.1649 19.3938C20.1163 19.4858 20.0434 19.5627 19.9542 19.6162C19.8649 19.6697 19.7627 19.6976 19.6586 19.6971C19.5882 19.6971 19.5182 19.6849 19.452 19.6608L16.5641 18.5008C15.9665 18.9673 15.3079 19.3499 14.6066 19.6379L14.1716 22.707C14.1543 22.8448 14.0868 22.9713 13.982 23.0622C13.8772 23.1532 13.7424 23.2023 13.6037 23.2ZM11.2837 7.25003C10.4233 7.25003 9.58229 7.50516 8.86693 7.98314C8.15158 8.46112 7.59403 9.1405 7.26479 9.93536C6.93555 10.7302 6.8494 11.6049 7.01725 12.4487C7.18509 13.2925 7.59939 14.0676 8.20775 14.6759C8.81611 15.2843 9.5912 15.6986 10.435 15.8664C11.2788 16.0343 12.1535 15.9482 12.9483 15.6189C13.7432 15.2897 14.4226 14.7321 14.9006 14.0168C15.3785 13.3014 15.6337 12.4604 15.6337 11.6C15.6337 10.4463 15.1754 9.3399 14.3596 8.52412C13.5438 7.70834 12.4374 7.25003 11.2837 7.25003Z" fill="currentColor"/>
</svg>
